<?xml version="1.0" standalone="no"?>
<!DOCTYPE svg PUBLIC "-//W3C//DTD SVG 20010904//EN"
 "http://www.w3.org/TR/2001/REC-SVG-20010904/DTD/svg10.dtd">
<svg version="1.0" xmlns="http://www.w3.org/2000/svg"
 width="240.000000pt" height="240.000000pt" viewBox="0 0 240.000000 240.000000"
 preserveAspectRatio="xMidYMid meet">

<g transform="translate(0.000000,240.000000) scale(0.100000,-0.100000)"
fill="#000000" stroke="none">
<path d="M1124 2316 c-100 -19 -138 -32 -224 -78 -106 -56 -190 -122 -299
-233 -52 -53 -118 -112 -147 -131 -84 -56 -102 -117 -53 -186 l20 -28 -25 -72
c-25 -74 -59 -215 -70 -298 -8 -57 -18 -73 -48 -75 -32 -2 -34 -40 -5 -89 l24
-39 -38 -83 c-76 -161 -70 -257 21 -343 26 -26 27 -27 19 -111 -9 -107 -11
-393 -2 -482 3 -39 11 -68 17 -68 8 0 11 89 11 304 0 167 3 307 6 311 4 3 33
-1 65 -11 74 -21 195 -21 254 1 83 31 82 31 182 -34 51 -34 141 -85 199 -114
l106 -52 0 -60 c0 -89 34 -150 107 -187 31 -16 54 -19 111 -16 85 4 138 33
182 100 24 35 28 52 28 107 0 36 -4 73 -8 82 -6 12 10 29 67 73 143 110 302
304 388 475 21 42 39 68 42 60 38 -112 134 -525 157 -674 13 -85 16 -308 4
-344 -4 -15 -2 -21 8 -21 24 0 27 23 27 180 0 109 -6 178 -21 256 -27 141 -92
421 -129 559 -18 67 -29 136 -30 175 0 39 -6 74 -14 85 -7 11 -17 38 -20 60
-7 39 -6 41 27 53 35 13 57 46 57 85 0 20 -21 56 -73 130 -10 14 -46 92 -81
174 -66 157 -128 263 -198 339 -152 165 -431 260 -644 220z m257 -40 c195 -42
356 -157 458 -327 40 -67 163 -349 156 -357 -6 -6 -88 48 -160 104 -85 67
-110 84 -245 161 -145 84 -253 120 -429 144 -197 26 -311 13 -519 -62 l-84
-29 69 75 c39 41 100 100 137 129 85 68 231 141 316 160 85 18 218 19 301 2z
m-221 -301 c230 -30 416 -118 683 -323 107 -82 93 -55 152 -301 l34 -144 -30
-73 c-17 -40 -53 -104 -80 -143 -70 -101 -250 -293 -358 -384 -77 -65 -96 -77
-114 -70 -12 4 -56 8 -98 8 -65 0 -81 -4 -116 -27 l-40 -26 -49 25 c-74 37
-75 43 -7 43 136 0 298 56 391 135 40 35 55 65 31 65 -7 0 -31 -18 -54 -39
-56 -51 -128 -87 -223 -112 -91 -23 -228 -25 -299 -4 -53 16 -103 48 -91 60 4
4 44 11 90 17 137 15 244 57 320 126 56 51 98 142 65 142 -8 0 -19 -18 -25
-39 -15 -48 -71 -100 -153 -142 -52 -26 -61 -28 -54 -12 17 40 27 102 21 126
-25 102 -307 188 -518 158 -42 -6 -82 -12 -89 -13 -7 -2 -16 14 -21 35 -4 21
-15 51 -23 68 -21 39 -91 89 -127 89 -33 0 -33 -2 -12 121 23 132 58 248 101
332 l37 72 7 -58 c9 -76 48 -132 120 -170 48 -26 62 -28 130 -25 64 2 82 7
117 32 59 41 97 120 88 184 -9 63 -52 130 -100 155 l-39 21 38 13 c50 17 75
40 75 70 0 21 4 23 53 23 28 0 104 -7 167 -15z m-250 -11 c0 -23 -61 -44 -158
-54 -48 -5 -98 -11 -112 -14 -53 -13 60 34 140 58 101 30 130 32 130 10z
m-130 -95 c97 -21 173 -124 156 -213 -8 -44 -59 -104 -103 -122 -79 -33 -186
-10 -245 53 -87 92 -52 235 69 278 47 17 59 18 123 4z m-273 -73 c-29 -40 -57
-81 -63 -91 -9 -16 -12 -14 -28 18 -24 52 -7 84 63 120 30 15 60 27 67 27 7 0
-10 -33 -39 -74z m1524 -272 c52 -38 67 -70 50 -102 -12 -22 -48 -38 -59 -27
-9 8 -50 165 -44 165 2 0 26 -16 53 -36z m-1595 -366 c40 -35 64 -82 64 -124
0 -25 -2 -26 -40 -21 -51 7 -103 46 -141 105 -41 65 -39 72 26 72 47 0 59 -4
91 -32z m1573 -110 c-24 -62 -58 -120 -146 -246 -107 -154 -306 -338 -342
-315 -9 6 -16 14 -16 20 0 5 32 36 70 70 166 143 372 377 424 481 30 58 35 53
10 -10z m-1652 -34 c15 -20 47 -59 69 -86 24 -28 44 -63 46 -81 3 -18 8 -41
12 -52 5 -13 -3 -8 -22 13 -30 34 -52 30 -33 -7 29 -53 114 -96 216 -109 66
-8 73 -18 29 -44 -107 -63 -329 -25 -400 68 -26 34 -29 45 -29 113 0 66 5 86
34 149 19 39 38 72 42 72 5 0 21 -16 36 -36z m503 -9 c121 -20 260 -82 260
-117 0 -5 -17 -16 -37 -25 -31 -13 -62 -14 -163 -10 -160 8 -213 19 -305 61
-70 32 -97 57 -81 74 10 9 133 30 186 31 25 1 88 -6 140 -14z m-380 -39 c0
-24 -16 -27 -35 -6 -18 19 -17 20 8 20 17 0 27 -5 27 -14z m63 -49 c72 -53
181 -83 347 -95 100 -7 153 -4 211 12 25 7 26 6 21 -19 -2 -14 -19 -41 -36
-60 -27 -28 -41 -34 -91 -39 -106 -11 -130 -19 -133 -43 -3 -19 -10 -23 -40
-23 -51 0 -82 10 -82 26 0 20 -41 44 -75 44 -67 0 -105 19 -136 68 -23 36 -29
57 -29 99 0 29 3 53 6 53 3 0 20 -11 37 -23z m398 -332 c105 -49 223 -115 227
-126 15 -41 -116 10 -258 101 -82 53 -89 60 -63 60 11 0 54 -16 94 -35z m506
-86 c61 -30 97 -92 91 -159 -7 -66 -44 -122 -101 -149 -51 -25 -119 -31 -125
-12 -3 10 -6 10 -12 1 -17 -28 -113 52 -126 106 -4 14 -4 47 -2 74 12 126 154
198 275 139z"/>
<path d="M957 2174 c-13 -13 -7 -24 14 -24 11 0 19 5 17 12 -5 14 -22 21 -31
12z"/>
<path d="M1135 2160 c-8 -12 20 -24 35 -15 5 3 10 10 10 16 0 12 -37 12 -45
-1z"/>
<path d="M992 2114 c-12 -8 -22 -21 -22 -29 0 -38 102 -48 141 -15 l24 20 -24
20 c-28 24 -87 26 -119 4z m103 -24 c0 -11 -13 -16 -47 -18 -36 -2 -48 0 -48
11 0 23 12 28 55 25 28 -2 40 -8 40 -18z"/>
<path d="M1020 2089 c0 -5 5 -7 10 -4 6 3 10 8 10 11 0 2 -4 4 -10 4 -5 0 -10
-5 -10 -11z"/>
<path d="M1050 2090 c0 -5 5 -10 10 -10 6 0 10 5 10 10 0 6 -4 10 -10 10 -5 0
-10 -4 -10 -10z"/>
<path d="M1120 1940 c0 -22 53 -60 83 -60 9 0 17 -4 17 -10 0 -5 -5 -10 -10
-10 -19 0 -103 -84 -116 -117 -19 -44 -18 -117 2 -156 44 -88 107 -121 225
-122 76 0 90 3 127 27 52 35 94 105 100 169 4 39 -1 60 -22 104 -38 76 -85
103 -230 127 -106 18 -156 37 -156 58 0 6 -4 10 -10 10 -5 0 -10 -9 -10 -20z
m260 -101 c112 -24 167 -124 124 -227 -18 -43 -58 -88 -96 -108 -56 -29 -193
-10 -241 34 -51 46 -72 144 -43 200 32 61 109 111 173 112 18 0 55 -5 83 -11z"/>
<path d="M1262 1708 c-7 -7 -12 -25 -12 -40 0 -50 62 -59 100 -14 31 39 -52
90 -88 54z"/>
<path d="M945 1488 c-11 -6 -35 -25 -53 -42 -31 -29 -38 -31 -113 -32 -73 -1
-83 -4 -107 -27 -36 -36 -36 -93 0 -120 23 -17 24 -22 14 -48 -13 -35 3 -70
44 -101 42 -31 177 -50 329 -46 131 3 138 4 191 34 63 36 88 65 100 119 19 85
-33 147 -135 160 -50 6 -60 12 -109 61 -48 49 -57 54 -97 54 -24 0 -53 -6 -64
-12z m145 -68 c47 -50 87 -70 143 -70 18 0 39 -11 58 -29 64 -64 23 -159 -87
-201 -99 -37 -387 -21 -458 25 -29 20 -40 46 -31 76 7 20 12 21 64 15 31 -3
120 -9 199 -13 123 -5 142 -4 142 9 0 12 -24 16 -132 22 -200 11 -280 23 -300
47 -18 22 -14 47 10 67 9 7 43 12 79 12 65 0 133 20 133 40 0 18 63 50 99 50
29 0 43 -9 81 -50z"/>
<path d="M944 1409 c-3 -6 -2 -15 4 -21 13 -13 32 -2 32 18 0 16 -26 19 -36 3z"/>
<path d="M1020 1395 c0 -8 9 -15 20 -15 11 0 20 7 20 15 0 8 -9 15 -20 15 -11
0 -20 -7 -20 -15z"/>
<path d="M746 1721 c-39 -43 19 -99 69 -67 28 19 32 47 9 70 -21 22 -57 20
-78 -3z"/>
<path d="M1410 290 c-18 -12 -2 -12 25 0 13 6 15 9 5 9 -8 0 -22 -4 -30 -9z"/>
<path d="M1355 260 c-8 -13 12 -40 29 -40 6 0 5 4 -3 9 -11 7 -11 9 0 14 10 4
8 6 -4 6 -10 1 -15 6 -12 11 3 6 4 10 1 10 -3 0 -8 -5 -11 -10z"/>
</g>
</svg>
