<svg width="322" height="60" viewBox="0 0 322 60" fill="none" xmlns="http://www.w3.org/2000/svg">
<path fill-rule="evenodd" clip-rule="evenodd" d="M215.717 11.7982H248.719L247.163 16.091H237.665L229.937 38.0921H216.2L223.927 16.091H214.215L215.717 11.7982Z" fill="#5C5B59"/>
<path fill-rule="evenodd" clip-rule="evenodd" d="M301.253 26.6086H297.765L293.687 38.0384H279.95L289.233 11.7445H317.137C319.659 11.7445 322.932 13.73 321.752 17.5399C321.269 19.0961 320.356 21.6718 319.659 23.7109C319.068 25.4817 317.566 26.6086 315.688 26.6086H312.361L314.776 38.0384H303.453L301.253 26.6086ZM299.321 22.1547H307.102C307.961 22.1011 308.927 21.6181 309.302 20.5449L310.214 17.9155C310.536 16.4667 309.141 16.0374 308.873 16.0374H301.468L299.321 22.1547Z" fill="#5C5B59"/>
<path fill-rule="evenodd" clip-rule="evenodd" d="M273.081 11.7982L277.964 38.0921C278.018 38.253 266.212 38.0921 264.817 38.0921L263.529 30.7405H246.894L240.992 38.0921H234.713L255.534 11.7982H273.081ZM262.724 26.6623L260.846 16.735L257.895 16.7886L250.06 26.6623H262.724Z" fill="#5C5B59"/>
<path fill-rule="evenodd" clip-rule="evenodd" d="M213.839 11.7982L212.337 16.091H193.448C192.214 16.091 191.409 16.7886 191.141 17.5936L191.033 17.9155C190.926 18.1838 190.282 20.062 190.228 20.2229C189.96 20.9205 190.765 22.2621 191.892 22.2621H203.858C206.434 22.2621 209.117 24.8378 207.936 28.1111L205.414 35.248C205.039 36.3749 203.644 38.0384 201.443 38.0384H165.92C166.832 36.9652 167.959 34.6041 168.388 33.3162C170.588 33.4236 176.867 33.4236 178.53 33.4236H190.175H191.731C192.375 33.4236 193.019 32.8869 193.233 32.3503L194.253 29.5063C194.629 28.3794 193.877 27.1452 192.643 27.1989H182.555L179.711 27.1452C177.296 27.0916 175.15 24.0865 175.955 21.7791C176.008 21.5645 176.545 20.1693 176.598 19.9546L177.618 17.0569C178.584 14.3202 180.462 11.7982 184.487 11.7445L213.839 11.7982Z" fill="#5C5B59"/>
<path fill-rule="evenodd" clip-rule="evenodd" d="M154.007 11.7982L159.051 38.0921C154.49 37.8774 150.144 38.0921 145.582 38.0384L144.295 30.9015H127.445L121.65 38.0921H115.318L136.245 11.7982H154.007ZM24.2548 11.7982L33.8601 32.0284L40.997 11.7982H47.0607L37.67 38.0921H22.3766L13.0396 18.2375L6.01004 38.0921H0L9.33702 11.7982H24.2548ZM54.144 11.7982H79.0964C83.4966 11.7982 86.9845 16.0374 85.2674 20.9205L81.0282 32.9406C79.794 36.3749 77.1646 38.0921 74.6425 38.0921H49.4218C44.9679 38.0921 41.8556 33.4772 43.2508 29.2917L47.812 16.3057C48.8852 13.5153 51.4609 11.7982 54.144 11.7982ZM61.0663 18.2375L56.5587 31.1161C56.1294 32.404 57.149 33.7455 58.3295 33.7455H64.3932C65.5738 33.7455 67.1836 32.887 67.6666 31.5454L71.9058 19.418C72.4424 17.9155 71.4228 16.1447 69.5984 16.1447H64.1249C63.1054 16.1447 61.5492 16.735 61.0663 18.2375ZM105.444 33.0479L122.454 11.8518H128.947L107.859 38.1457H92.6189L87.7358 11.8518H101.473L105.444 33.0479ZM143.543 26.8769L141.665 16.8423L138.66 16.896L130.718 26.8769H143.543Z" fill="#2095CD"/>
<path fill-rule="evenodd" clip-rule="evenodd" d="M157.871 31.921L159.051 38.092C154.49 37.8774 150.144 38.092 145.582 38.0384L144.241 30.9015H127.391L121.65 38.092H115.318L124.762 26.233C134.206 27.5745 145.207 29.399 157.871 31.921ZM1.77081 33.1016C3.97092 32.5113 6.11736 31.9747 8.31746 31.4917L6.01004 38.092H0L1.77081 33.1016ZM18.2448 29.3453C22.645 28.4867 27.0452 27.7355 31.4454 27.0379L33.8064 32.0284L35.7919 26.3939C37.8847 26.1256 39.9775 25.8573 42.0702 25.589L37.6164 38.092H22.3766L18.2448 29.3453ZM44.7533 25.3207C49.5291 24.7841 54.305 24.3548 59.0271 24.0329L56.5051 31.1698C56.0758 32.4576 57.0953 33.7992 58.2759 33.7992H64.3396C65.5201 33.7992 67.13 32.9406 67.6129 31.5991L70.4569 23.4426C75.1254 23.2816 79.794 23.1743 84.4088 23.1743L80.9745 32.9942C79.7403 36.4286 77.1109 38.1457 74.5888 38.1457H49.4218C44.9679 38.1457 41.8556 33.5309 43.2508 29.3453L44.7533 25.3207ZM89.8822 23.1743C93.6385 23.2279 98.2533 23.4426 103.78 23.9255L105.444 33.0479L112.152 24.7305C114.03 24.9451 116.015 25.1597 118.108 25.428L107.912 38.1457H92.6726L89.8822 23.1743Z" fill="#1A63A2"/>
<path fill-rule="evenodd" clip-rule="evenodd" d="M158.676 0.690327C151.753 -1.67076 140.163 2.24648 135.279 9.06143C141.129 3.26604 150.573 1.17328 156.315 3.10507C165.759 6.32473 165.866 20.5986 158.729 34.9797C151.646 49.4145 138.123 58.5369 128.679 55.3172C123.259 53.4928 120.362 48.0194 120.147 40.9361C119.825 49.8438 123.152 56.9271 129.752 59.1808C140.377 62.8298 155.563 52.6342 163.505 36.5359C171.501 20.4376 169.301 4.33928 158.676 0.690327Z" fill="#9FC54C"/>
</svg>
