<?xml version="1.0" encoding="UTF-8"?>
<svg id="_图层_1" data-name="图层 1" xmlns="http://www.w3.org/2000/svg" viewBox="0 0 211.26 211.26">
  <defs>
    <style>
      .cls-1 {
        fill: #fff;
      }
    </style>
  </defs>
  <path d="M120.69,116.27c-1.43,0-2.82-.77-3.54-2.12-1.04-1.95-.29-4.37,1.66-5.41l.77-.41c4.69-2.51,10.54-5.64,19.52-4.39,2.19,.3,3.72,2.33,3.41,4.51-.3,2.19-2.33,3.71-4.51,3.41-6.4-.89-10.4,1.25-14.64,3.52l-.79,.42c-.6,.32-1.24,.47-1.87,.47Z"/>
  <path d="M140.54,97.44c-.33,0-.67-.07-.99-.21-6.37-2.77-11.04-1.72-15.97-.62l-.87,.19c-1.35,.3-2.68-.56-2.98-1.9-.3-1.35,.55-2.68,1.9-2.98l.86-.19c5.24-1.17,11.19-2.5,19.06,.91,1.27,.55,1.85,2.02,1.3,3.29-.41,.94-1.33,1.51-2.29,1.51Z"/>
  <path d="M70.72,97.44c-.97,0-1.89-.56-2.29-1.51-.55-1.27,.03-2.74,1.3-3.29,7.87-3.41,13.81-2.09,19.05-.91l.86,.19c1.35,.3,2.2,1.63,1.9,2.98-.3,1.35-1.63,2.2-2.98,1.9l-.87-.19c-4.94-1.1-9.6-2.15-15.97,.62-.32,.14-.66,.21-.99,.21Z"/>
  <path d="M136.71,77.99c-6.57,0-10.11,1.33-13.54,2.61-3.92,1.46-7.97,2.98-17.54,2.98s-13.62-1.51-17.54-2.98c-3.43-1.28-6.98-2.61-13.54-2.61-14.74,0-32.87,23.65-32.87,42.89s19.84,46.18,63.94,46.18,63.94-27.01,63.94-46.18-18.12-42.89-32.86-42.89Zm-31.08,84.07c-40.66,0-58.94-24.08-58.94-41.18s15.89-37.89,27.87-37.89c5.66,0,8.5,1.06,11.79,2.29,4.13,1.54,8.82,3.29,19.29,3.29s15.15-1.75,19.28-3.29c3.29-1.23,6.13-2.29,11.8-2.29,11.98,0,27.86,21.6,27.86,37.89,0,17.1-18.29,41.18-58.94,41.18Z"/>
  <g>
    <path d="M105.63,45.91c-4.48,0-8.11,3.63-8.11,8.11,0,0,5.36,8.11,8.11,8.11,3.03,0,8.11-8.11,8.11-8.11,0-4.48-3.63-8.11-8.11-8.11Z"/>
    <path d="M133.12,45.55c.41-1.32-.32-2.72-1.64-3.13-4.29-1.35-8.75-2.36-13.25-3.01-1.37-.2-2.64,.75-2.83,2.12-.2,1.37,.75,2.63,2.11,2.83,4.24,.61,8.43,1.57,12.47,2.84,.25,.08,.5,.12,.75,.12,1.06,0,2.05-.68,2.38-1.75Z"/>
    <path d="M93.03,39.4c-4.5,.65-8.96,1.67-13.25,3.01-1.32,.41-2.05,1.82-1.64,3.13,.34,1.07,1.32,1.75,2.38,1.75,.25,0,.5-.04,.75-.12,4.04-1.27,8.24-2.22,12.47-2.84,1.37-.2,2.31-1.47,2.12-2.83-.2-1.37-1.46-2.32-2.83-2.12Z"/>
    <path d="M191.48,65.37c.17-1.15-.13-2.26-.84-3.11-5.31-6.36-18.99-4.9-32.88,3.35-.42-.34-.85-.67-1.28-.98-5.29-20.41-22.11-35.37-42.44-38.63,.78-1.78,1.26-3.79,1.26-5.93,0-7.15-5.3-3.21-9.67-3.21s-9.67-3.94-9.67,3.21c0,2.14,.48,4.15,1.26,5.93-20.34,3.27-37.15,18.22-42.44,38.63-.4,.28-.78,.58-1.16,.89-13.84-8.17-27.44-9.6-32.73-3.26-.71,.85-1.01,1.95-.84,3.11,.34,2.34,2.9,5.12,5.46,7.37-2.07,.48-3.91,1.34-4.55,2.8-1.29,2.94,1.31,5.43,4.33,7.36-2.03,.94-3.87,2.21-4.15,3.77-.81,4.44,4.75,8.95,10.09,11.28-1.64,5.53-2.49,11.27-2.49,17.13,0,17.88,8.08,34.02,22.75,45.44,14.07,10.95,33.29,16.98,54.13,16.98s40.07-6.03,54.13-16.98c14.67-11.42,22.75-27.56,22.75-45.44,0-5.82-.84-11.52-2.45-17.02,5.41-2.31,11.15-6.88,10.33-11.39-.29-1.56-2.12-2.83-4.15-3.76,3.02-1.93,5.62-4.42,4.33-7.36-.64-1.46-2.48-2.32-4.55-2.8,2.57-2.25,5.13-5.03,5.46-7.37ZM26.2,88.07c1.15-.69,3.64-1.79,5.7-2.11,1.05-.16,1.88-.96,2.08-2,.2-1.04-.28-2.09-1.2-2.63-.21-.12-.58-.32-1.05-.56-2.84-1.47-4.39-2.47-5.23-3.13,1.57-.35,4-.59,5.39-.33,1.17,.22,2.33-.41,2.78-1.51,.45-1.1,.06-2.37-.93-3.03-2.97-1.99-7.66-5.95-8.6-7.75,3.41-3.06,13.11-2.33,24.37,3.9-.12,.12-.24,.24-.37,.35-.95,.93-1.96,1.82-2.89,2.8-.85,.96-1.7,1.92-2.55,2.89l-.03-.02c-.24,.29-.47,.59-.7,.88-.04,.04-.07,.09-.11,.13-4.32,5.36-7.67,11.16-10.03,17.26-3.55-1.61-6.05-3.93-6.65-5.14Zm79.43,84.43c-41.65,0-71.88-24.15-71.88-57.42,0-11.83,3.73-23.18,10.82-33.1l.54-.71,1.13-1.5,.26-.34c.18-.23,.37-.46,.55-.69l.37-.43c.82-.95,1.64-1.9,2.46-2.85,.86-.91,1.75-1.79,2.61-2.68,.44-.44,.85-.9,1.31-1.31,.46-.41,.91-.82,1.37-1.23,.92-.8,1.77-1.66,2.71-2.39,1.87-1.46,3.62-2.97,5.45-4.18,.89-.63,1.75-1.27,2.61-1.85,.87-.56,1.72-1.09,2.53-1.61,1.62-1.07,3.16-1.89,4.52-2.68,.69-.39,1.33-.76,1.92-1.1,.62-.31,1.19-.6,1.7-.86,2.05-1.04,3.21-1.69,3.21-1.69,0,0-1.3,.24-3.54,.76-.56,.13-1.18,.28-1.85,.43-.67,.19-1.38,.45-2.15,.7-1.54,.52-3.32,1.05-5.12,1.91-.92,.4-1.87,.82-2.86,1.25-.97,.45-1.92,1.02-2.92,1.55,6.42-16.43,21.48-27.97,39.08-29.87,1.62,1.51,3.47,2.41,5.18,2.41s3.56-.9,5.18-2.41c17.61,1.91,32.66,13.44,39.08,29.88-1.01-.53-1.95-1.1-2.92-1.55-.99-.43-1.95-.85-2.86-1.25-1.8-.86-3.58-1.39-5.12-1.91-.77-.25-1.48-.51-2.15-.7-.68-.16-1.3-.3-1.86-.43-2.24-.52-3.54-.76-3.54-.76,0,0,1.15,.65,3.21,1.69,.51,.26,1.08,.55,1.7,.86,.59,.34,1.24,.71,1.92,1.1,1.37,.79,2.91,1.61,4.53,2.68,.81,.52,1.66,1.05,2.53,1.61,.86,.58,1.72,1.22,2.61,1.85,1.83,1.21,3.58,2.72,5.45,4.18,.93,.73,1.78,1.59,2.71,2.39,.45,.41,.91,.82,1.37,1.23,.46,.41,.87,.87,1.31,1.31,.86,.89,1.75,1.77,2.61,2.68,.82,.95,1.64,1.9,2.46,2.85l.38,.43c.19,.23,.37,.46,.55,.69l.26,.34,1.13,1.5,.54,.71c7.09,9.92,10.82,21.27,10.82,33.1,0,33.27-30.23,57.42-71.88,57.42Zm72.15-99.72c-.99,.66-1.38,1.93-.93,3.03,.45,1.1,1.61,1.73,2.78,1.51,1.4-.27,3.82-.02,5.39,.33-.84,.66-2.39,1.66-5.22,3.13-.47,.24-.84,.44-1.05,.56-.91,.53-1.39,1.59-1.2,2.63,.2,1.04,1.03,1.84,2.08,2,2.05,.32,4.54,1.41,5.7,2.11-.62,1.24-3.21,3.63-6.88,5.25-2.37-6.15-5.74-11.99-10.09-17.38-.02-.03-.05-.06-.07-.09-.24-.3-.47-.6-.72-.9l-.03,.02c-.85-.96-1.7-1.93-2.55-2.89-.92-.98-1.93-1.87-2.89-2.8-.09-.09-.18-.17-.27-.26,11.34-6.31,21.12-7.06,24.55-3.99-.95,1.8-5.63,5.76-8.6,7.75Z"/>
  </g>
  <path d="M152.55,122.14c-.03-.9-.54-1.71-1.34-2.13-.8-.42-1.75-.37-2.51,.12-9.9,6.39-31.73,8.09-43.07,8.09s-33.17-1.7-43.07-8.09c-.76-.49-1.71-.53-2.51-.12-.8,.42-1.31,1.23-1.34,2.13-.32,8.93,2.72,17.19,8.57,23.25,7.99,8.28,20.89,12.48,38.35,12.48s30.37-4.2,38.35-12.48c5.85-6.06,8.89-14.32,8.57-23.25Zm-12.17,19.78c-7.01,7.27-18.7,10.95-34.76,10.95s-27.75-3.68-34.76-10.95c-3.98-4.13-6.41-9.51-7.03-15.44,14.46,6.54,38.81,6.74,41.79,6.74s27.33-.21,41.79-6.74c-.62,5.94-3.05,11.31-7.03,15.44Z"/>
  <path d="M90.57,116.27c-.63,0-1.28-.15-1.87-.47l-.79-.42c-4.24-2.27-8.24-4.41-14.64-3.52-2.19,.3-4.21-1.22-4.51-3.41-.3-2.19,1.22-4.21,3.41-4.51,8.98-1.25,14.83,1.88,19.52,4.39l.76,.41c1.95,1.04,2.69,3.46,1.65,5.41-.72,1.35-2.1,2.12-3.54,2.12Z"/>
  <path d="M149.29,137.47s-.86,.36-2.15,.89c-.64,.27-1.39,.58-2.25,.88-.84,.3-1.73,.63-2.63,.95-.9,.28-1.8,.56-2.64,.82-.42,.12-.82,.27-1.21,.36-.39,.1-.76,.2-1.1,.28-1.35,.35-2.26,.58-2.26,.58,0,0,.81-.46,2.02-1.16,.3-.17,.63-.36,.97-.56,.35-.19,.69-.43,1.06-.66,.73-.46,1.5-.96,2.28-1.46,.74-.53,1.48-1.05,2.18-1.55,.69-.47,1.33-.98,1.88-1.41,1.1-.86,1.84-1.43,1.84-1.43l2.01,3.46Z"/>
  <path d="M80.47,141.05s.82,.04,2.22,.2c.7,.08,1.56,.17,2.53,.31,.49,.07,1,.14,1.55,.21,.55,.03,1.11,.09,1.7,.14,1.18,.1,2.45,.21,3.78,.37,1.33,.16,2.77,.15,4.23,.27,.73,.05,1.47,.11,2.22,.16,.75,.08,1.52,.02,2.28,.06,1.54,.01,3.1,.07,4.65,.12,.77-.02,1.54-.05,2.31-.07,.79-.02,1.59-.03,2.37-.05,.39,0,.78-.01,1.17-.02,.39,0,.78,0,1.14-.04,.74-.05,1.48-.11,2.2-.16,1.44-.12,2.85-.11,4.19-.27,1.34-.16,2.62-.27,3.8-.37,.59-.05,1.16-.1,1.71-.14,.54-.07,1.05-.14,1.53-.21,.96-.14,1.81-.23,2.51-.31,1.4-.15,2.23-.2,2.23-.2,0,0-.71,.38-2.01,.96-.65,.29-1.43,.65-2.35,1.03-.46,.19-.95,.39-1.46,.61-.53,.16-1.09,.33-1.67,.51-1.16,.35-2.44,.73-3.79,1.1-1.35,.37-2.84,.56-4.36,.83-1.53,.25-3.13,.52-4.68,.56-.79,.04-1.58,.09-2.37,.13-.82,.04-1.64,.07-2.47,.11-1.63-.07-3.26-.14-4.87-.25-1.61-.05-3.17-.32-4.68-.57-1.51-.27-2.96-.46-4.33-.83-1.37-.37-2.64-.75-3.82-1.1-.58-.18-1.15-.34-1.67-.51-.51-.21-.99-.41-1.44-.6-.91-.37-1.69-.73-2.33-1.02-1.29-.58-2.01-.96-2.01-.96Z"/>
  <path d="M63.95,133.99s2.64,2.04,5.28,4.09c2.77,1.79,5.53,3.59,5.53,3.59,0,0-3.25-.92-6.5-1.84-3.13-1.17-6.26-2.34-6.26-2.34l1.95-3.49Z"/>
  <polygon class="cls-1" points="67.1 135.16 84.71 141.83 25.49 144 26.16 135.44 67.1 135.16"/>
  <polygon class="cls-1" points="130.79 140.72 142.82 135.44 189.05 135.16 189.05 139.68 130.79 140.72"/>
  <path d="M120.85,143.49l68.24-1.81c.96-.03,1.72-.81,1.72-1.77v-4.87c0-.98-.79-1.77-1.77-1.77h-41.91l-8.25,3.54h48.39v1.38l-54.75,1.45-11.68,3.85Zm-37.14-2.56l-55.3,1.59v-1.56l47.24-1.83-47.24-.75v-1.57h43.29l-5.47-3.54H26.64c-.98,0-1.77,.79-1.77,1.77v9.3c0,.48,.19,.94,.54,1.27,.33,.32,.77,.5,1.24,.5h.05l66.77-1.89-9.74-3.29Z"/>
  <path d="M105.63,211.26C47.39,211.26,0,163.88,0,105.63S47.39,0,105.63,0s105.63,47.39,105.63,105.63-47.39,105.63-105.63,105.63Zm0-206.26C50.14,5,5,50.14,5,105.63s45.14,100.63,100.63,100.63,100.63-45.14,100.63-100.63S161.12,5,105.63,5Z"/>
  <path d="M154.28,161.75c7.91,6.01,14.37,13.45,18.84,21.87-18.09,15.66-41.68,25.14-67.48,25.14s-49.4-9.48-67.48-25.14c4.47-8.42,10.92-15.87,18.84-21.87,0,0,20.01,13.4,48.65,13.4s48.65-13.4,48.65-13.4Z"/>
  <path class="cls-1" d="M126.8,195.54l-1.14-4.87c7.75-1.82,15.21-4.7,22.2-8.56l2.42,4.38c-7.39,4.09-15.29,7.13-23.48,9.05Z"/>
</svg>